REM DIRINDEX 1\2,1\3,1\4,1\5,1\6
REM DIRNAME cjc091,folder01,folder02,folder03,folder04,folder05
TITLE ""
FILE "CD2-02.mp3" MP3
  TRACK 01 AUDIO
    TITLE "6:cjc091_1476"
    INDEX 01 00:00:00
  TRACK 02 AUDIO
    TITLE "0:"
    INDEX 01 00:01:28
  TRACK 03 AUDIO
    TITLE "6:cjc091_1477"
    INDEX 01 00:01:48
  TRACK 04 AUDIO
    TITLE "0:"
    INDEX 01 00:03:57
  TRACK 05 AUDIO
    TITLE "2:cjc091_1478"
    INDEX 01 00:05:03
  TRACK 06 AUDIO
    TITLE "0:"
    INDEX 01 00:06:61
  TRACK 07 AUDIO
    TITLE "3:cjc091_1479"
    INDEX 01 00:07:02
  TRACK 08 AUDIO
    TITLE "0:"
    INDEX 01 00:08:24
  TRACK 09 AUDIO
    TITLE "4:cjc091_1480"
    INDEX 01 00:08:42
  TRACK 10 AUDIO
    TITLE "0:"
    INDEX 01 00:12:28
  TRACK 11 AUDIO
    TITLE "2:cjc091_1481"
    INDEX 01 00:13:39
  TRACK 12 AUDIO
    TITLE "0:"
    INDEX 01 00:14:68
  TRACK 13 AUDIO
    TITLE "3:cjc091_1482"
    INDEX 01 00:15:13
  TRACK 14 AUDIO
    TITLE "0:"
    INDEX 01 00:16:44
  TRACK 15 AUDIO
    TITLE "4:cjc091_1483"
    INDEX 01 00:16:73
  TRACK 16 AUDIO
    TITLE "0:"
    INDEX 01 00:21:09
  TRACK 17 AUDIO
    TITLE "2:cjc091_1484"
    INDEX 01 00:22:21
  TRACK 18 AUDIO
    TITLE "0:"
    INDEX 01 00:23:55
  TRACK 19 AUDIO
    TITLE "3:cjc091_1485"
    INDEX 01 00:23:63
  TRACK 20 AUDIO
    TITLE "0:"
    INDEX 01 00:25:58
  TRACK 21 AUDIO
    TITLE "4:cjc091_1486"
    INDEX 01 00:26:01
  TRACK 22 AUDIO
    TITLE "0:"
    INDEX 01 00:29:72
  TRACK 23 AUDIO
    TITLE "2:cjc091_1487"
    INDEX 01 00:31:08
  TRACK 24 AUDIO
    TITLE "0:"
    INDEX 01 00:32:23
  TRACK 25 AUDIO
    TITLE "3:cjc091_1488"
    INDEX 01 00:32:33
  TRACK 26 AUDIO
    TITLE "0:"
    INDEX 01 00:33:66
  TRACK 27 AUDIO
    TITLE "4:cjc091_1489"
    INDEX 01 00:34:12
  TRACK 28 AUDIO
    TITLE "0:"
    INDEX 01 00:38:04
  TRACK 29 AUDIO
    TITLE "2:cjc091_1490"
    INDEX 01 00:39:21
  TRACK 30 AUDIO
    TITLE "0:"
    INDEX 01 00:40:60
  TRACK 31 AUDIO
    TITLE "3:cjc091_1491"
    INDEX 01 00:40:64
  TRACK 32 AUDIO
    TITLE "0:"
    INDEX 01 00:41:69
  TRACK 33 AUDIO
    TITLE "4:cjc091_1492"
    INDEX 01 00:42:06
  TRACK 34 AUDIO
    TITLE "0:"
    INDEX 01 00:46:66
  TRACK 35 AUDIO
    TITLE "2:cjc091_1493"
    INDEX 01 00:48:04
  TRACK 36 AUDIO
    TITLE "0:"
    INDEX 01 00:50:01
  TRACK 37 AUDIO
    TITLE "3:cjc091_1494"
    INDEX 01 00:50:35
  TRACK 38 AUDIO
    TITLE "0:"
    INDEX 01 00:52:51
  TRACK 39 AUDIO
    TITLE "4:cjc091_1495"
    INDEX 01 00:53:00
  TRACK 40 AUDIO
    TITLE "0:"
    INDEX 01 00:56:25
  TRACK 41 AUDIO
    TITLE "2:cjc091_1496"
    INDEX 01 00:57:33
  TRACK 42 AUDIO
    TITLE "0:"
    INDEX 01 00:59:12
  TRACK 43 AUDIO
    TITLE "3:cjc091_1497"
    INDEX 01 00:59:16
  TRACK 44 AUDIO
    TITLE "0:"
    INDEX 01 01:00:41
  TRACK 45 AUDIO
    TITLE "4:cjc091_1498"
    INDEX 01 01:00:60
  TRACK 46 AUDIO
    TITLE "0:"
    INDEX 01 01:05:52
  TRACK 47 AUDIO
    TITLE "2:cjc091_1499"
    INDEX 01 01:06:67
  TRACK 48 AUDIO
    TITLE "0:"
    INDEX 01 01:09:65
  TRACK 49 AUDIO
    TITLE "3:cjc091_1500"
    INDEX 01 01:10:04
  TRACK 50 AUDIO
    TITLE "0:"
    INDEX 01 01:12:68
  TRACK 51 AUDIO
    TITLE "4:cjc091_1501"
    INDEX 01 01:13:08
  TRACK 52 AUDIO
    TITLE "0:"
    INDEX 01 01:17:73
  TRACK 53 AUDIO
    TITLE "2:cjc091_1502"
    INDEX 01 01:19:17
  TRACK 54 AUDIO
    TITLE "0:"
    INDEX 01 01:20:32
  TRACK 55 AUDIO
    TITLE "3:cjc091_1503"
    INDEX 01 01:20:59
  TRACK 56 AUDIO
    TITLE "0:"
    INDEX 01 01:22:42
  TRACK 57 AUDIO
    TITLE "4:cjc091_1504"
    INDEX 01 01:22:66
  TRACK 58 AUDIO
    TITLE "0:"
    INDEX 01 01:25:11
  TRACK 59 AUDIO
    TITLE "2:cjc091_1505"
    INDEX 01 01:26:25
  TRACK 60 AUDIO
    TITLE "0:"
    INDEX 01 01:27:50
  TRACK 61 AUDIO
    TITLE "3:cjc091_1506"
    INDEX 01 01:27:71
  TRACK 62 AUDIO
    TITLE "0:"
    INDEX 01 01:29:58
  TRACK 63 AUDIO
    TITLE "4:cjc091_1507"
    INDEX 01 01:30:01
  TRACK 64 AUDIO
    TITLE "0:"
    INDEX 01 01:33:42
  TRACK 65 AUDIO
    TITLE "2:cjc091_1508"
    INDEX 01 01:34:46
  TRACK 66 AUDIO
    TITLE "0:"
    INDEX 01 01:36:01
  TRACK 67 AUDIO
    TITLE "3:cjc091_1509"
    INDEX 01 01:36:25
  TRACK 68 AUDIO
    TITLE "0:"
    INDEX 01 01:38:16
  TRACK 69 AUDIO
    TITLE "4:cjc091_1510"
    INDEX 01 01:38:34
  TRACK 70 AUDIO
    TITLE "0:"
    INDEX 01 01:42:18
  TRACK 71 AUDIO
    TITLE "2:cjc091_1511"
    INDEX 01 01:43:29
  TRACK 72 AUDIO
    TITLE "0:"
    INDEX 01 01:44:38
  TRACK 73 AUDIO
    TITLE "3:cjc091_1512"
    INDEX 01 01:44:54
  TRACK 74 AUDIO
    TITLE "0:"
    INDEX 01 01:46:37
  TRACK 75 AUDIO
    TITLE "4:cjc091_1513"
    INDEX 01 01:46:61
  TRACK 76 AUDIO
    TITLE "0:"
    INDEX 01 01:49:28
  TRACK 77 AUDIO
    TITLE "2:cjc091_1514"
    INDEX 01 01:50:43
  TRACK 78 AUDIO
    TITLE "0:"
    INDEX 01 01:52:12
  TRACK 79 AUDIO
    TITLE "3:cjc091_1515"
    INDEX 01 01:52:22
  TRACK 80 AUDIO
    TITLE "0:"
    INDEX 01 01:54:29
  TRACK 81 AUDIO
    TITLE "4:cjc091_1516"
    INDEX 01 01:54:52
  TRACK 82 AUDIO
    TITLE "0:"
    INDEX 01 01:58:68
  TRACK 83 AUDIO
    TITLE "2:cjc091_1517"
    INDEX 01 02:00:04
  TRACK 84 AUDIO
    TITLE "0:"
    INDEX 01 02:01:70
  TRACK 85 AUDIO
    TITLE "3:cjc091_1518"
    INDEX 01 02:02:05
  TRACK 86 AUDIO
    TITLE "0:"
    INDEX 01 02:04:23
  TRACK 87 AUDIO
    TITLE "4:cjc091_1519"
    INDEX 01 02:04:43
  TRACK 88 AUDIO
    TITLE "0:"
    INDEX 01 02:08:05
  TRACK 89 AUDIO
    TITLE "2:cjc091_1520"
    INDEX 01 02:09:19
  TRACK 90 AUDIO
    TITLE "0:"
    INDEX 01 02:10:59
  TRACK 91 AUDIO
    TITLE "3:cjc091_1521"
    INDEX 01 02:10:69
  TRACK 92 AUDIO
    TITLE "0:"
    INDEX 01 02:13:01
  TRACK 93 AUDIO
    TITLE "4:cjc091_1522"
    INDEX 01 02:13:22
  TRACK 94 AUDIO
    TITLE "0:"
    INDEX 01 02:17:67
